# xmcd
#
# Track frame offsets: 
#        150
#        19000
#        39570
#        60212
#        84705
#        105817
#        125112
#        143652
#        176280
#        193545
#
# Disc length: 2939 seconds
#
# Revision: 0
# Processed by: cddbd v1.5.2PL0 Copyright (c) Steve Scherf et al.
# Submitted via: ExactAudioCopy v1.0b3
#
DISCID=750b790a
DTITLE=Jack Pearson - Step Out!
DYEAR=1994
DGENRE=Blues Rock
TTITLE0=Step Out
TTITLE1=I Can Fix It
TTITLE2=Find a Way
TTITLE3=The Give and Take
TTITLE4=I'm Not Crying
TTITLE5=Loving You
TTITLE6=My Old Friend
TTITLE7=Highpockets
TTITLE8=Don't Give Up
TTITLE9=Just for a Little While
EXTD=
EXTT0=
EXTT1=
EXTT2=
EXTT3=
EXTT4=
EXTT5=
EXTT6=
EXTT7=
EXTT8=
EXTT9=
PLAYORDER=
